<svg width="20" height="16" viewBox="0 0 20 16" fill="none" xmlns="http://www.w3.org/2000/svg">
<g opacity="0.5">
<path fill-rule="evenodd" clip-rule="evenodd" d="M13.6757 1.84574L13.6766 2.34549C15.9721 2.48942 17.4885 3.74079 17.4909 5.65983L17.5 11.277C17.5032 13.3693 15.8602 14.6567 13.2265 14.66L6.79323 14.6667C4.17599 14.6693 2.51235 13.3513 2.50906 11.253L2.50001 5.70181C2.49671 3.77011 3.95961 2.52207 6.25514 2.35349L6.25431 1.85374C6.2535 1.56055 6.52501 1.34 6.88703 1.34C7.24905 1.33933 7.52056 1.55922 7.52139 1.8524L7.52221 2.31884L12.4095 2.31351L12.4087 1.84708C12.4078 1.55389 12.6793 1.334 13.0414 1.33333C13.3952 1.33266 13.6749 1.55256 13.6757 1.84574ZM3.7679 5.90771L16.2247 5.89438V5.66116C16.1893 4.22855 15.2908 3.47692 13.6782 3.36498L13.679 3.87806C13.679 4.16458 13.4001 4.3918 13.0463 4.3918C12.6843 4.39246 12.4119 4.16591 12.4119 3.87939L12.4112 3.33966L7.52386 3.34499L7.52468 3.88406C7.52468 4.17124 7.25399 4.3978 6.89196 4.3978C6.52995 4.39846 6.25761 4.17258 6.25761 3.88539L6.25679 3.37231C4.65238 3.50091 3.76461 4.2552 3.76707 5.70048L3.7679 5.90771ZM12.6999 8.9362V8.94353C12.7082 9.25006 13.0208 9.4826 13.4001 9.47593C13.7703 9.4686 14.0657 9.21473 14.0575 8.9082C14.0402 8.615 13.7432 8.3758 13.3737 8.37646C12.9953 8.38313 12.6991 8.62966 12.6999 8.9362ZM13.3795 11.928C13.0011 11.9213 12.6958 11.6688 12.695 11.3623C12.6867 11.0558 12.9903 10.8019 13.3688 10.7946H13.3771C13.7637 10.7946 14.0772 11.0471 14.0772 11.3603C14.0781 11.6735 13.7654 11.9273 13.3795 11.928ZM9.31008 8.94686C9.32658 9.2534 9.64 9.4926 10.0185 9.47926C10.3887 9.46526 10.6842 9.21206 10.6677 8.90553C10.6586 8.60566 10.3542 8.37246 9.98391 8.37313C9.6055 8.38646 9.30925 8.64033 9.31008 8.94686ZM10.0218 11.8981C9.64333 11.9114 9.33066 11.6721 9.31341 11.3657C9.31341 11.0591 9.60875 10.8059 9.98725 10.7919C10.3575 10.7913 10.6627 11.0245 10.671 11.3237C10.6882 11.6309 10.3921 11.8841 10.0218 11.8981ZM5.92027 8.9702C5.93673 9.27666 6.25021 9.5166 6.62868 9.5026C6.99893 9.48926 7.29431 9.2354 7.27702 8.92886C7.2688 8.629 6.96437 8.3958 6.5933 8.39646C6.21482 8.4098 5.91945 8.66366 5.92027 8.9702ZM6.63197 11.9014C6.2535 11.9154 5.94084 11.6755 5.92356 11.369C5.92274 11.0625 6.21894 10.8086 6.59741 10.7953C6.96766 10.7946 7.27291 11.0278 7.28114 11.3277C7.29841 11.6342 7.00304 11.8881 6.63197 11.9014Z" fill="#2F3542"/>
</g>
</svg>
