<svg width="16" height="16" viewBox="0 0 16 16" fill="none" xmlns="http://www.w3.org/2000/svg">
<g opacity="0.5">
<path fill-rule="evenodd" clip-rule="evenodd" d="M1.33325 8.01C1.33325 4.49808 4.13992 1.33334 8.01325 1.33334C11.7999 1.33334 14.6666 4.438 14.6666 7.99C14.6666 12.1095 11.3066 14.6667 7.99992 14.6667C6.90658 14.6667 5.69325 14.3729 4.71992 13.7987C4.37992 13.5917 4.09325 13.4381 3.72659 13.5583L2.37992 13.9589C2.03992 14.0657 1.73325 13.7987 1.83325 13.4381L2.27992 11.9426C2.35325 11.7356 2.33992 11.5153 2.23325 11.3417C1.65992 10.2867 1.33325 9.13167 1.33325 8.01ZM7.13325 8.01C7.13325 8.48407 7.51325 8.8646 7.98658 8.87134C8.45992 8.87134 8.83992 8.48407 8.83992 8.01667C8.83992 7.54267 8.45992 7.16207 7.98658 7.16207C7.51992 7.1554 7.13325 7.54267 7.13325 8.01ZM10.2066 8.01667C10.2066 8.48407 10.5866 8.87134 11.0599 8.87134C11.5333 8.87134 11.9133 8.48407 11.9133 8.01667C11.9133 7.54267 11.5333 7.16207 11.0599 7.16207C10.5866 7.16207 10.2066 7.54267 10.2066 8.01667ZM4.91325 8.87134C4.44658 8.87134 4.05992 8.48407 4.05992 8.01667C4.05992 7.54267 4.43992 7.16207 4.91325 7.16207C5.38658 7.16207 5.76658 7.54267 5.76658 8.01667C5.76658 8.48407 5.38658 8.8646 4.91325 8.87134Z" fill="#2F3542"/>
</g>
</svg>
