<svg xmlns="http://www.w3.org/2000/svg" viewBox="0 0 512 512" id="facebook"><path fill="#1b75bb" d="M333.88 440.06V321.65h35.89c2.83-6.65 5.56-13.3 8.33-19.9 3.92-9.25 7.79-18.51 11.65-27.71 1.44-3.37 2.83-6.8 4.27-10.17h-59.59V223.4c0-3.66-.65-7.23.44-10.79a5.13 5.13 0 0 1 .25-.82 10.55 10.55 0 0 1 5.35-5.88 6.67 6.67 0 0 1 1.89-.58 20.51 20.51 0 0 1 4.81-.38c4.06 0 8.13.09 12.24.19 5.46.09 11 .29 16.46.38 2.13.1 4.26.15 6.4.2.05-2.17.05-4.29.05-6.46.1-5.49.1-11 .1-16.48s-.05-10.89-.05-16.34-.1-10.89-.1-16.33v-1.83H332.1a64.67 64.67 0 0 0-16.56 1.15 53.59 53.59 0 0 0-6.55 1.64c-25.23 8-36.73 29.06-39.41 34.36a67.46 67.46 0 0 0-5 13.54 68.8 68.8 0 0 0-2.08 18.41c0 1.06 0 2 .05 2.94v43.46h-48v57.87h48v92.43c0 6.94.29 19.09.29 26Z"></path><path fill="#231f20" d="M392.45 444.56H108.68a47 47 0 0 1-46.91-46.91V113.88A47 47 0 0 1 108.68 67h283.77a47 47 0 0 1 46.9 46.9v283.75a47 47 0 0 1-46.9 46.91ZM108.68 76.89a37 37 0 0 0-37 37v283.76a37 37 0 0 0 37 37h283.77a37 37 0 0 0 37-37V113.88a37 37 0 0 0-37-37Z"></path><path fill="#231f20" d="M325.32 445h-80.87v-4.91c0-3.44-.07-8.3-.14-13s-.15-9.69-.15-13.24v-88.5h-48v-68.29h48V215.19a75.26 75.26 0 0 1 2.23-19.85 74 74 0 0 1 5.37-14.65c4.25-8.51 16.86-29.12 42.32-37.22a56.82 56.82 0 0 1 7.14-1.8 68.54 68.54 0 0 1 17.6-1.26h54.94v6.77c0 5.48.05 11.06.1 16.46v16.54c0 5.48 0 11.15-.1 16.74 0 2.17 0 4.3-.05 6.55l-.11 4.91-4.91-.11c-2.1 0-4.26-.1-6.44-.2q-4.15-.08-8.28-.2c-2.71-.07-5.42-.14-8.12-.19-4.07-.09-8.15-.14-12.09-.19h-.12a16 16 0 0 0-3.58.25l-.44.08a2 2 0 0 0-.45.14l-.17.04a5.68 5.68 0 0 0-2.73 3.16l-.15.54a18.94 18.94 0 0 0-.34 6.24c.05 1 .1 2.12.1 3.24v35.88H388l-2.88 6.83c-.72 1.7-1.42 3.41-2.13 5.13s-1.41 3.43-2.13 5.14l-3.4 8.17q-3.91 9.44-7.86 18.9v1.07l-.8.81q-1.55 3.7-3.07 7.44c-1.62 3.92-3.24 7.86-4.9 11.8l-1.26 3h-34.25Zm-71.07-9.83h61.25V315.53H353q1.81-4.36 3.6-8.72c1.15-2.8 2.3-5.58 3.46-8.36l.4-.94q4-9.48 7.89-18.95l3.41-8.2c.49-1.16 1-2.32 1.44-3.47H316v-45.71c0-.89 0-1.8-.08-2.77a27.57 27.57 0 0 1 .67-9.31 8.77 8.77 0 0 1 .41-1.1l.13-.34a15.34 15.34 0 0 1 7.85-8.6 11.07 11.07 0 0 1 3-1 24.89 24.89 0 0 1 5.77-.48h.18c4 0 8.08.09 12.18.19 2.69.05 5.43.12 8.17.19s5.5.15 8.26.2h.14l1.3.06v-1.48c.1-5.59.1-11.21.1-16.65v-16.5c0-4.38-.08-8.92-.09-13.44h-45.66a58.89 58.89 0 0 0-15.28 1.08 47.74 47.74 0 0 0-6 1.51c-21.93 7-32.86 24.87-36.54 32.24a63.43 63.43 0 0 0-4.64 12.68 64.94 64.94 0 0 0-1.94 17.34V266.9H206v48.64h48v98.28c0 3.48.07 8.37.14 13.09.03 2.79.08 5.64.11 8.23Z"></path></svg>