<svg width="17" height="16" viewBox="0 0 17 16" fill="none" xmlns="http://www.w3.org/2000/svg">
<path d="M11.1666 13.6667H12.4999C13.2363 13.6667 13.8333 13.0697 13.8333 12.3333V6.60524C13.8333 6.18025 13.6306 5.78071 13.2878 5.52958L9.28779 2.59976C8.81872 2.25619 8.18111 2.25619 7.71205 2.59976L3.71205 5.52958C3.36919 5.78071 3.16659 6.18025 3.16659 6.60524V12.3333C3.16659 13.0697 3.76354 13.6667 4.49992 13.6667H5.83325V8.33333C5.83325 7.96514 6.13173 7.66666 6.49992 7.66666H10.4999C10.8681 7.66666 11.1666 7.96514 11.1666 8.33333V13.6667ZM9.83325 13.6667V9H7.16658V13.6667H9.83325ZM2.92418 4.45392L6.92418 1.5241C7.86231 0.836967 9.13753 0.836967 10.0757 1.5241L14.0757 4.45392C14.7614 4.95618 15.1666 5.75525 15.1666 6.60524V12.3333C15.1666 13.8061 13.9727 15 12.4999 15H4.49992C3.02716 15 1.83325 13.8061 1.83325 12.3333V6.60524C1.83325 5.75525 2.23846 4.95618 2.92418 4.45392Z" fill="#FF7A2C"/>
</svg>
