<svg width="48" height="48" viewBox="0 0 48 48" fill="none" xmlns="http://www.w3.org/2000/svg">
<circle opacity="0.1" cx="24" cy="24" r="24" fill="white"/>
<path d="M27.9693 31.5C27.7232 33.4732 26.04 35 24.0002 35C21.9604 35 20.2772 33.4732 20.0312 31.5H16.0391C14.9345 31.5 14.0391 30.6046 14.0391 29.5C14.0391 29.0568 14.1863 28.6261 14.4576 28.2757L16.0002 26.2831V21C16.0002 16.5817 19.5819 13 24.0002 13C28.4185 13 32.0002 16.5817 32.0002 21V26.2831L33.5428 28.2757C34.219 29.1491 34.0591 30.4053 33.1857 31.0814C32.8352 31.3528 32.4046 31.5 31.9613 31.5H27.9693ZM25.9372 31.5H22.0632C22.2853 32.3626 23.0683 33 24.0002 33C24.9321 33 25.7152 32.3626 25.9372 31.5ZM18.0002 21V26.625C18.0002 26.8466 17.9266 27.0619 17.7909 27.2372L16.0391 29.5H31.9613L30.2095 27.2372C30.0738 27.0619 30.0002 26.8466 30.0002 26.625V21C30.0002 17.6863 27.3139 15 24.0002 15C20.6865 15 18.0002 17.6863 18.0002 21Z" fill="#2F3542"/>
<circle cx="30.6004" cy="18.5999" r="4.2" fill="#FF3B30"/>
</svg>
