<svg width="48" height="48" viewBox="0 0 48 48" fill="none" xmlns="http://www.w3.org/2000/svg">
<circle opacity="0.1" cx="24" cy="24" r="24" fill="white"/>
<path d="M27.969 31.5C27.723 33.4732 26.0398 35 24 35C21.9602 35 20.277 33.4732 20.0309 31.5H16.0388C14.9342 31.5 14.0388 30.6046 14.0388 29.5C14.0388 29.0568 14.186 28.6261 14.4574 28.2757L16 26.2831V21C16 16.5817 19.5817 13 24 13C28.4182 13 32 16.5817 32 21V26.2831L33.5426 28.2757C34.2187 29.1491 34.0589 30.4053 33.1854 31.0814C32.835 31.3528 32.4043 31.5 31.9611 31.5H27.969ZM25.937 31.5H22.063C22.285 32.3626 23.0681 33 24 33C24.9319 33 25.715 32.3626 25.937 31.5ZM18 21V26.625C18 26.8466 17.9263 27.0619 17.7907 27.2372L16.0388 29.5H31.9611L30.2092 27.2372C30.0736 27.0619 30 26.8466 30 26.625V21C30 17.6863 27.3137 15 24 15C20.6863 15 18 17.6863 18 21Z" fill="#2F3542"/>
<circle cx="30.6" cy="18.6" r="4.2" fill="#FF3B30"/>
</svg>
