<svg width="18" height="18" viewBox="0 0 18 18" fill="none" xmlns="http://www.w3.org/2000/svg">
<path d="M13.8445 12.6659L17.6756 16.4969C18.001 16.8224 18.001 17.35 17.6756 17.6754C17.3501 18.0009 16.8225 18.0009 16.497 17.6754L12.666 13.8444C11.383 14.8708 9.75546 15.4845 7.98462 15.4845C3.84248 15.4845 0.484619 12.1266 0.484619 7.9845C0.484619 3.84236 3.84248 0.484497 7.98462 0.484497C12.1268 0.484497 15.4846 3.84236 15.4846 7.9845C15.4846 9.75534 14.8709 11.3828 13.8445 12.6659ZM7.98462 13.8178C11.2063 13.8178 13.818 11.2062 13.818 7.9845C13.818 4.76284 11.2063 2.15116 7.98462 2.15116C4.76296 2.15116 2.15129 4.76284 2.15129 7.9845C2.15129 11.2062 4.76296 13.8178 7.98462 13.8178Z" fill="#2F3542"/>
</svg>
