<svg width="37" height="35" viewBox="0 0 37 35" fill="none" xmlns="http://www.w3.org/2000/svg">
<rect width="35" height="35" fill="white"/>
<circle cx="17.5" cy="17.5" r="17.5" fill="#FF7A2C"/>
<path d="M27.5156 13.125C28.4531 12.4219 29.2969 11.5781 29.9531 10.5938C29.1094 10.9688 28.125 11.25 27.1406 11.3438C28.1719 10.7344 28.9219 9.79688 29.2969 8.625C28.3594 9.1875 27.2812 9.60938 26.2031 9.84375C25.2656 8.85938 24 8.29688 22.5938 8.29688C19.875 8.29688 17.6719 10.5 17.6719 13.2188C17.6719 13.5938 17.7188 13.9688 17.8125 14.3438C13.7344 14.1094 10.0781 12.1406 7.64062 9.1875C7.21875 9.89062 6.98438 10.7344 6.98438 11.6719C6.98438 13.3594 7.82812 14.8594 9.1875 15.75C8.39062 15.7031 7.59375 15.5156 6.9375 15.1406V15.1875C6.9375 17.5781 8.625 19.5469 10.875 20.0156C10.5 20.1094 10.0312 20.2031 9.60938 20.2031C9.28125 20.2031 9 20.1562 8.67188 20.1094C9.28125 22.0781 11.1094 23.4844 13.2656 23.5312C11.5781 24.8438 9.46875 25.6406 7.17188 25.6406C6.75 25.6406 6.375 25.5938 6 25.5469C8.15625 26.9531 10.7344 27.75 13.5469 27.75C22.5938 27.75 27.5156 20.2969 27.5156 13.7812C27.5156 13.5469 27.5156 13.3594 27.5156 13.125Z" fill="white"/>
</svg>
