<svg width="297" height="362" viewBox="0 0 297 362" fill="none" xmlns="http://www.w3.org/2000/svg">
<circle cx="148.5" cy="172.5" r="148.5" fill="url(#paint0_linear_19_1136)"/>
<circle cx="162" cy="37" r="36" fill="white" stroke="#B6A68D" stroke-width="2"/>
<path d="M127 37H132" stroke="#B6A68D" stroke-width="2" stroke-linecap="round" stroke-linejoin="round"/>
<path d="M192 37H197" stroke="#B6A68D" stroke-width="2" stroke-linecap="round" stroke-linejoin="round"/>
<path d="M161.543 72.4995L161.457 67.5003" stroke="#B6A68D" stroke-width="2" stroke-linecap="round" stroke-linejoin="round"/>
<path d="M161.543 6.49902L161.457 1.49977" stroke="#B6A68D" stroke-width="2" stroke-linecap="round" stroke-linejoin="round"/>
<path d="M152 10.5L162 37L179 24" stroke="#B6A68D" stroke-width="3" stroke-linecap="round" stroke-linejoin="round"/>
<circle cx="162" cy="37" r="3" fill="#514846"/>
<path fill-rule="evenodd" clip-rule="evenodd" d="M156.957 334C90.407 334 36.457 340.269 36.457 348.001C36.457 355.732 90.407 362 156.957 362C223.508 362 277.457 355.732 277.457 348.001C277.457 340.269 223.508 334 156.957 334Z" fill="#4B5D61" fill-opacity="0.1"/>
<path fill-rule="evenodd" clip-rule="evenodd" d="M204.003 349.683H197.67L211.317 201.683H217.654L204.003 349.683Z" fill="#B6A68E"/>
<path fill-rule="evenodd" clip-rule="evenodd" d="M250.694 349.683H257.027L243.38 201.683H237.047L250.694 349.683Z" fill="#B6A68E"/>
<path fill-rule="evenodd" clip-rule="evenodd" d="M169.168 190.433L132.681 181.033C126.415 169.414 119.439 158.193 111.793 147.433C107.73 151.454 105.473 157.63 101.382 161.61L125.16 191.622C126.255 192.835 171.945 197.45 171.945 197.45L169.168 190.433Z" fill="url(#paint1_linear_19_1136)"/>
<path d="M117.136 105.011C117.553 98.063 116.236 91.1202 113.306 84.8065C110.64 79.2593 104.047 76.1265 98.0322 76.1065C78.9386 76.0809 76.5122 101.306 64.3522 111.042C60.6394 114.016 56.4866 116.438 52.973 119.644C39.9954 131.484 45.8418 153.404 57.7586 163.786C66.0282 170.986 79.021 175.084 89.2146 169.453C94.5346 166.513 98.5746 161.613 101.455 156.27C105.539 148.67 108.175 139.904 111.075 131.806C114.163 123.189 116.753 114.214 117.136 105.011Z" fill="#190C1A"/>
<path fill-rule="evenodd" clip-rule="evenodd" d="M106.345 168.901C106.345 168.901 92.017 154.209 88.3322 147.828C84.6474 141.447 90.8522 145.588 97.1722 143.922C99.5722 143.286 98.9642 129.235 103.492 133.802C110.928 141.295 120.278 154.382 120.278 154.382L106.345 168.901Z" fill="url(#paint2_linear_19_1136)"/>
<path d="M109.74 339.714H104.422L104.422 261.95H109.74L109.74 339.714Z" fill="#B6A68E"/>
<path fill-rule="evenodd" clip-rule="evenodd" d="M170.785 319.824C170.785 319.824 171.95 331.962 171.185 335.918C171.033 336.578 170.835 337.226 170.595 337.858C169.805 340.079 171.963 346.855 171.963 346.855L200.899 346.956C202.476 346.956 201.423 346.006 200.14 345.13C198.04 343.697 196.349 342.754 189.665 339.766C189.231 339.57 187.641 338.646 187.067 338.307C185.521 337.358 184.114 336.2 182.883 334.867C180.778 332.686 180.459 321.987 180.459 321.987L170.785 319.824Z" fill="url(#paint3_linear_19_1136)"/>
<path fill-rule="evenodd" clip-rule="evenodd" d="M187.075 338.306C179.448 340.266 173.775 339.063 170.595 337.883C169.809 340.099 168.453 348.423 169.338 348.423C176.596 348.423 182.608 348.903 203.397 348.591C204.142 348.591 204.05 346.135 203.565 345.595C202.226 344.105 187.649 338.622 187.075 338.306Z" fill="#F7CB72"/>
<path fill-rule="evenodd" clip-rule="evenodd" d="M193.925 299.703C193.925 299.703 200.253 310.285 201.278 314.188C201.425 314.847 201.527 315.515 201.583 316.188C201.83 318.518 206.735 323.826 206.735 323.826L233.106 312.44C234.546 311.818 233.167 311.368 231.622 311.08C229.102 310.61 227.142 310.419 219.763 310.355C219.283 310.355 217.428 310.128 216.764 310.075C214.942 309.822 213.162 309.327 211.471 308.604C208.603 307.456 203.667 297.852 203.667 297.852L193.925 299.703Z" fill="url(#paint4_linear_19_1136)"/>
<path fill-rule="evenodd" clip-rule="evenodd" d="M216.506 310.063C210.421 314.877 204.746 316.03 201.333 316.223C201.579 318.553 203.483 325.956 204.287 325.607C210.889 322.727 217.047 321.485 235.826 312.951C236.498 312.645 235.353 310.455 234.678 310.15C232.81 309.318 217.173 310.122 216.506 310.063Z" fill="#F7CB72"/>
<path d="M112.631 209.338V215.574L173.976 227.894L189.2 271.613L180.716 266.073L182.676 333.396L169.774 333.483C169.774 333.483 147.424 277.022 154.749 248.606L86.8546 249.6C86.8546 249.6 56.085 238.24 71.9642 203.993L112.631 209.338Z" fill="#28141A" stroke="#232021" stroke-width="0.6024" stroke-linecap="round" stroke-linejoin="round"/>
<path d="M107.251 215.574C107.251 215.574 170.884 215.982 175.406 219.309C179.928 222.635 213.839 305.302 213.839 305.302L199.046 310.582C199.046 310.582 169.621 263.681 168.064 260.334C166.508 256.988 155.108 232.534 150.757 230.038C146.406 227.543 107.251 215.574 107.251 215.574Z" fill="#30181C" stroke="#232021" stroke-width="0.6024" stroke-linecap="round" stroke-linejoin="round"/>
<path fill-rule="evenodd" clip-rule="evenodd" d="M113.488 343.181C113.488 341.266 111.937 339.713 110.022 339.711H103.548C101.634 339.713 100.082 341.266 100.082 343.181L78.9253 343.182C76.4931 343.18 74.5197 345.15 74.5157 347.582C74.517 348.008 74.8626 348.352 75.2885 348.352H135.396C135.822 348.352 136.167 348.008 136.168 347.582C136.164 345.15 134.192 343.182 131.761 343.182H113.488V343.181Z" fill="#B6A68E"/>
<path fill-rule="evenodd" clip-rule="evenodd" d="M89.7186 127.384C89.7186 127.384 76.9186 124.864 71.0786 129.736C65.2386 134.608 72.3298 177.997 72.3242 185.176C72.3186 192.355 68.3146 212.686 68.3146 212.686C68.3146 212.686 107.103 219.49 113.263 208.702C113.263 208.702 115.015 167.57 114.755 162.398C114.495 157.226 108.743 136.078 107.155 133.806C105.567 131.535 89.7186 127.384 89.7186 127.384Z" fill="url(#paint5_linear_19_1136)"/>
<path fill-rule="evenodd" clip-rule="evenodd" d="M89.6379 107.587C89.6379 107.587 89.5707 107.97 89.4507 108.621C88.8715 111.746 86.6339 122.109 85.1243 124.956C83.2987 128.399 91.3707 139.378 99.1411 138.04C101.454 137.64 97.1811 127.96 97.3907 126.92C97.7827 124.96 98.3171 122.274 98.8611 119.528C99.1691 117.977 99.4795 116.403 99.7715 114.927C100.611 110.731 101.28 107.298 101.28 107.298L89.6379 107.587Z" fill="url(#paint6_linear_19_1136)"/>
<path fill-rule="evenodd" clip-rule="evenodd" d="M110.714 105.341C109.692 107.324 107.981 108.421 106.889 107.788C105.797 107.155 105.739 105.05 106.758 103.068C107.777 101.087 109.49 99.9905 110.582 100.623C111.674 101.256 111.733 103.364 110.714 105.341Z" fill="url(#paint7_linear_19_1136)"/>
<path fill-rule="evenodd" clip-rule="evenodd" d="M99.0756 85.9769C99.0756 85.9769 93.5875 85.3441 90.1459 89.7849C86.7043 94.2257 83.0004 107.954 91.546 115.419C100.092 122.884 108.534 114.433 109.786 105.476C111.038 96.5193 111.524 85.6521 99.0756 85.9769Z" fill="url(#paint8_linear_19_1136)"/>
<path d="M99.6885 84.5089C99.6885 84.5089 92.3581 97.5672 87.1133 98.1672C81.8685 98.7672 81.1797 105.702 81.1797 105.702C81.1797 105.702 83.0533 89.7137 88.2485 86.6313C93.4437 83.5489 99.6885 84.5089 99.6885 84.5089Z" fill="#190C1A"/>
<path d="M107.688 84.5089C107.688 84.5089 114.783 90.9697 111.91 95.9297C107.688 92.5641 100.493 92.5641 98.3547 85.9449C96.2163 79.3257 107.688 84.5089 107.688 84.5089Z" fill="#190C1A"/>
<path fill-rule="evenodd" clip-rule="evenodd" d="M87.3251 104.326C87.3647 104.821 87.0487 105.275 86.5707 105.41C85.0843 105.722 83.5387 104.082 83.1083 101.77C82.6779 99.4593 83.5411 97.3225 85.0283 97.0089C86.1483 96.7721 87.3043 97.6449 87.9883 99.0833" fill="url(#paint9_linear_19_1136)"/>
<path fill-rule="evenodd" clip-rule="evenodd" d="M79.5501 244.938C79.5501 244.938 142.813 246.018 149.408 244.938C156.002 243.857 158.861 252.122 156.889 256.454C154.917 260.786 149.505 262.454 141.533 262.854C133.562 263.254 67.2133 265.119 65.3421 263.347C63.8133 261.9 43.7013 193.137 36.3821 167.987C34.9164 162.962 37.7984 157.699 42.8221 156.227C47.8223 154.758 53.0716 157.596 54.5821 162.583L79.5501 244.938Z" fill="#514846"/>
<path fill-rule="evenodd" clip-rule="evenodd" d="M229.844 151.374H176.759C175.354 151.374 174.09 152.224 173.559 153.524L157.209 193.39H127.945C127.552 193.39 127.174 193.546 126.896 193.824C126.618 194.101 126.461 194.479 126.461 194.872C126.463 195.69 127.127 196.352 127.945 196.35H211.238C213.528 196.35 215.605 195.007 216.544 192.918L233.002 156.254C233.482 155.182 233.387 153.941 232.749 152.956C232.111 151.97 231.017 151.375 229.844 151.374Z" fill="white"/>
<path d="M199.58 172.583C199.347 174.281 197.791 175.475 196.091 175.26C194.437 174.807 193.458 173.103 193.901 171.446C194.134 169.749 195.691 168.557 197.39 168.775C199.041 169.229 200.018 170.928 199.58 172.583Z" fill="#D6D6D6"/>
<path d="M276.475 202L120.439 202C119.897 202 119.457 201.408 119.457 200.678V197.322C119.457 196.592 119.897 196 120.439 196L276.475 196C277.017 196 277.457 196.592 277.457 197.322V200.678C277.457 201.408 277.017 202 276.475 202Z" fill="#514846"/>
<path fill-rule="evenodd" clip-rule="evenodd" d="M145.811 349.682H139.475L153.124 201.682H159.458L145.811 349.682Z" fill="#B6A68E"/>
<path fill-rule="evenodd" clip-rule="evenodd" d="M197.622 349.682H203.956L190.308 201.682H183.972L197.622 349.682Z" fill="#B6A68E"/>
<path fill-rule="evenodd" clip-rule="evenodd" d="M131.959 184.791C131.038 185.25 105.559 181.093 98.2795 181.093C97.4363 178.769 92.2995 162.761 91.5491 160.562C87.6595 163.362 80.8555 164.922 76.8291 167.465C79.7691 174.745 90.5891 192.391 92.6251 193.305C98.8219 196.074 129.155 194.242 133.915 190.826C134.179 192.112 143.475 191.002 145.369 189.882C151.494 193.405 157.356 191.522 159.435 190.826C161.151 190.251 151.427 186.314 145.369 183.762C142.087 182.384 132.391 184.576 131.959 184.791Z" fill="url(#paint10_linear_19_1136)"/>
<path fill-rule="evenodd" clip-rule="evenodd" d="M75.722 169.119C75.722 169.119 67.2852 150.415 66.0028 143.155C64.7204 135.895 70.9508 126.784 77.4828 127.371C84.0148 127.958 93.7764 160.262 93.7764 160.262L75.722 169.119Z" fill="url(#paint11_linear_19_1136)"/>
<defs>
<linearGradient id="paint0_linear_19_1136" x1="148.5" y1="24" x2="148.5" y2="321" gradientUnits="userSpaceOnUse">
<stop stop-color="#DAD3C8"/>
<stop offset="1" stop-color="white" stop-opacity="0"/>
</linearGradient>
<linearGradient id="paint1_linear_19_1136" x1="182.512" y1="187.725" x2="102.803" y2="131.541" gradientUnits="userSpaceOnUse">
<stop stop-color="#B3826E"/>
<stop offset="1" stop-color="#2D181B"/>
</linearGradient>
<linearGradient id="paint2_linear_19_1136" x1="125.056" y1="159.782" x2="87.0047" y2="159.782" gradientUnits="userSpaceOnUse">
<stop stop-color="#FF7A2C"/>
<stop offset="1" stop-color="#FF7A2C"/>
</linearGradient>
<linearGradient id="paint3_linear_19_1136" x1="206.375" y1="341.681" x2="166.667" y2="318.816" gradientUnits="userSpaceOnUse">
<stop stop-color="#B3826E"/>
<stop offset="1" stop-color="#2D181B"/>
</linearGradient>
<linearGradient id="paint4_linear_19_1136" x1="239.671" y1="318.776" x2="197.246" y2="286.308" gradientUnits="userSpaceOnUse">
<stop stop-color="#B3826E"/>
<stop offset="1" stop-color="#2D181B"/>
</linearGradient>
<linearGradient id="paint5_linear_19_1136" x1="115" y1="186.5" x2="67.9999" y2="192.5" gradientUnits="userSpaceOnUse">
<stop stop-color="#FF7A2C"/>
<stop offset="1" stop-color="#FF7A2C"/>
</linearGradient>
<linearGradient id="paint6_linear_19_1136" x1="103.739" y1="132.154" x2="77.8124" y2="125.261" gradientUnits="userSpaceOnUse">
<stop stop-color="#B3826E"/>
<stop offset="1" stop-color="#2D181B"/>
</linearGradient>
<linearGradient id="paint7_linear_19_1136" x1="112.252" y1="106.505" x2="104.149" y2="103.593" gradientUnits="userSpaceOnUse">
<stop stop-color="#B3826E"/>
<stop offset="1" stop-color="#2D181B"/>
</linearGradient>
<linearGradient id="paint8_linear_19_1136" x1="114" y1="112" x2="78.2304" y2="98.6926" gradientUnits="userSpaceOnUse">
<stop stop-color="#B3826E"/>
<stop offset="1" stop-color="#2D181B"/>
</linearGradient>
<linearGradient id="paint9_linear_19_1136" x1="88.7356" y1="103.8" x2="80.9691" y2="101.515" gradientUnits="userSpaceOnUse">
<stop stop-color="#B3826E"/>
<stop offset="1" stop-color="#2D181B"/>
</linearGradient>
<linearGradient id="paint10_linear_19_1136" x1="172.036" y1="188.024" x2="115.416" y2="119.31" gradientUnits="userSpaceOnUse">
<stop stop-color="#B3826E"/>
<stop offset="1" stop-color="#2D181B"/>
</linearGradient>
<linearGradient id="paint11_linear_19_1136" x1="97.8163" y1="158.54" x2="65.6445" y2="158.54" gradientUnits="userSpaceOnUse">
<stop stop-color="#FF7A2C"/>
<stop offset="1" stop-color="#FF7A2C"/>
</linearGradient>
</defs>
</svg>
