<svg width="27" height="27" viewBox="0 0 27 27" fill="none" xmlns="http://www.w3.org/2000/svg">
<path d="M13.5907 11.2717V3.33325M13.5907 3.33325L16.5676 6.31017M13.5907 3.33325L10.6138 6.31017" stroke="white" stroke-width="1.37821" stroke-linecap="round" stroke-linejoin="round"/>
<path d="M3.66699 14.2485H6.80268C7.70072 14.2485 8.15024 14.2485 8.54518 14.4301C8.94012 14.6117 9.23185 14.9531 9.81632 15.6348L10.4177 16.3354C11.0021 17.0171 11.2939 17.3584 11.6888 17.54C12.0837 17.7216 12.5323 17.7216 13.4313 17.7216H13.7488C14.6469 17.7216 15.0964 17.7216 15.4913 17.54C15.8863 17.3584 16.178 17.0171 16.7625 16.3354L17.3638 15.6348C17.9483 14.9531 18.24 14.6117 18.635 14.4301C19.0299 14.2485 19.4784 14.2485 20.3775 14.2485H23.5131" stroke="white" stroke-width="1.37821" stroke-linecap="round"/>
<path d="M23.5131 13.2563C23.5131 17.934 23.5131 20.2729 22.0594 21.7266C20.6077 23.1794 18.2678 23.1794 13.5901 23.1794C8.91233 23.1794 6.57346 23.1794 5.11973 21.7266C3.66699 20.2719 3.66699 17.934 3.66699 13.2563C3.66699 8.57854 3.66699 6.24067 5.11973 4.78694C5.93045 3.97622 7.01504 3.618 8.62853 3.45923M18.5516 3.45923C20.1641 3.618 21.2507 3.97622 22.0594 4.78694C23.0259 5.75245 23.3494 7.11092 23.4586 9.28705" stroke="white" stroke-width="1.37821" stroke-linecap="round"/>
</svg>
